<svg height="512" viewBox="0 0 64 64" width="512" xmlns="http://www.w3.org/2000/svg"><g id="Fill_Outline" data-name="Fill Outline"><g id="Stroke_copy" data-name="Stroke copy"><g><circle cx="32" cy="32" fill="#84d2f4" r="29"/><path d="m37 53a29.008 29.008 0 0 1 -26.781-40.135 29 29 0 1 0 48.562 30.27 28.922 28.922 0 0 1 -21.781 9.865z" fill="#57b7eb"/><circle cx="32" cy="32" fill="#57b7eb" r="25"/><path d="m32 7a25 25 0 1 0 25 25 25 25 0 0 0 -25-25zm5 42a25 25 0 0 1 -23.368-33.888 25 25 0 0 1 39.736 27.776 24.9 24.9 0 0 1 -16.368 6.112z" fill="#4891d3"/><g><circle cx="32" cy="18" fill="#c4f236" r="2"/><circle cx="28" cy="44" fill="#c4f236" r="6"/><path d="m31 47a5.993 5.993 0 0 1 -5.466-8.466 6 6 0 1 0 7.932 7.932 5.974 5.974 0 0 1 -2.466.534z" fill="#a1d51c"/><path d="m33 19a1.992 1.992 0 0 1 -1.82-2.82 2 2 0 1 0 2.64 2.64 1.99 1.99 0 0 1 -.82.18z" fill="#a1d51c"/><circle cx="47" cy="39.5" fill="#c4f236" r="2"/><path d="m48 40.5a1.992 1.992 0 0 1 -1.82-2.82 2 2 0 1 0 2.64 2.64 1.99 1.99 0 0 1 -.82.18z" fill="#a1d51c"/><g><path d="m46 22a2 2 0 0 0 -2-2 2 2 0 0 0 -2 2 6 6 0 0 0 6 6 2 2 0 0 0 2-2 2 2 0 0 0 -2-2 2 2 0 0 1 -2-2z" fill="#c4f236"/><path d="m49 26a6 6 0 0 1 -5.986-5.73 1.99 1.99 0 0 0 -1.014 1.73 6 6 0 0 0 6 6 2 2 0 0 0 2-2 1.905 1.905 0 0 0 -.027-.263 1.972 1.972 0 0 1 -.973.263z" fill="#a1d51c"/></g><path d="m21 24a2 2 0 0 0 2-2 2 2 0 0 0 -2-2 6 6 0 0 0 -6 6 2 2 0 0 0 2 2 2 2 0 0 0 2-2 2 2 0 0 1 2-2z" fill="#c4f236"/><path d="m22 44a6 6 0 0 0 9.97 4.494 24.891 24.891 0 0 1 -9.97-4.494z" fill="#7ab92d"/><path d="m17 25a5.982 5.982 0 0 1 2.371-4.77 6 6 0 0 0 -4.371 5.77 1.993 1.993 0 0 0 3.737.973 1.993 1.993 0 0 1 -1.737-1.973z" fill="#a1d51c"/></g><path d="m32 57a24.909 24.909 0 0 0 16.853-6.536 28.987 28.987 0 0 1 -40.83-25.544 25 25 0 0 0 23.977 32.08z" fill="#2d72bc"/></g></g><g id="Outline_copy" data-name="Outline copy"><g fill="#323232"><path d="m48.759 7.114a1 1 0 1 0 -1.119 1.658 28 28 0 0 1 -27.94 48.387 1 1 0 1 0 -.879 1.8 29.694 29.694 0 0 0 13.179 3.041 30 30 0 0 0 16.759-54.886z"/><path d="m4 32a28.032 28.032 0 0 1 28-28 27.719 27.719 0 0 1 12.3 2.841 1 1 0 1 0 .879-1.8 29.688 29.688 0 0 0 -13.179-3.041 30 30 0 0 0 -16.759 54.886 1 1 0 1 0 1.119-1.658 27.992 27.992 0 0 1 -12.36-23.228z"/><path d="m12.208 15.149a25.993 25.993 0 0 0 36.644 36.643 1 1 0 0 0 -1.3-1.522 23.994 23.994 0 0 1 -33.823-33.824 1 1 0 1 0 -1.521-1.3z"/><path d="m51.031 49.2a1 1 0 0 0 .761-.352 25.993 25.993 0 0 0 -36.644-36.64 1 1 0 0 0 1.3 1.522 23.994 23.994 0 0 1 33.823 33.824 1 1 0 0 0 .76 1.649z"/><path d="m39.485 49.857a1 1 0 0 0 1.372-.343 6.828 6.828 0 0 0 .332-6.405 1 1 0 1 0 -1.812.845 4.832 4.832 0 0 1 -.234 4.532 1 1 0 0 0 .342 1.371z"/><circle cx="19" cy="35" r="1"/><circle cx="36" cy="25" r="1"/><circle cx="36" cy="11" r="1"/><circle cx="24" cy="30" r="1"/><circle cx="38" cy="53" r="1"/><circle cx="40" cy="35" r="1"/><path d="m32.989 29.1a2.9 2.9 0 0 0 -2.344.838.933.933 0 0 1 -1.29 0 1 1 0 0 0 -1.414 1.414 2.912 2.912 0 0 0 4.118 0 .916.916 0 0 1 .733-.262.9.9 0 0 1 .669.4 1 1 0 0 0 1.664-1.11 2.9 2.9 0 0 0 -2.136-1.28z"/><path d="m28 17a1 1 0 0 0 0 2h1.184a2.746 2.746 0 0 0 .117.285l-.836.837a1 1 0 1 0 1.414 1.414l.836-.837a2.746 2.746 0 0 0 .285.117v1.184a1 1 0 0 0 2 0v-1.184a3 3 0 0 0 1.816-1.816h1.184a1 1 0 0 0 0-2h-1.184a2.746 2.746 0 0 0 -.117-.285l.836-.837a1 1 0 1 0 -1.414-1.414l-.836.837a2.746 2.746 0 0 0 -.285-.117v-1.184a1 1 0 0 0 -2 0v1.184a2.746 2.746 0 0 0 -.285.117l-.836-.837a1 1 0 1 0 -1.414 1.414l.836.837a2.746 2.746 0 0 0 -.117.285zm4 2a1 1 0 1 1 1-1 1 1 0 0 1 -1 1z"/><path d="m50 43.414a1 1 0 0 0 .707-1.707l-.836-.836a2.746 2.746 0 0 0 .117-.285h1.184a1 1 0 0 0 0-2h-1.184c-.035-.1-.073-.193-.117-.286l.836-.836a1 1 0 0 0 -1.414-1.414l-.836.836c-.093-.044-.188-.081-.285-.116v-1.184a1 1 0 0 0 -2 0v1.184a3 3 0 0 0 -1.816 1.816h-1.184a1 1 0 0 0 0 2h1.184c.035.1.072.192.116.285l-.836.836a1 1 0 0 0 1.414 1.415l.837-.837a2.746 2.746 0 0 0 .285.117v1.184a1 1 0 0 0 2 0v-1.186a2.84 2.84 0 0 0 .285-.117l.836.836a1 1 0 0 0 .707.295zm-2.828-4.828a1 1 0 1 1 -1 1 1 1 0 0 1 1-1z"/><path d="m39.03 24.243a1 1 0 0 0 .97.757.968.968 0 0 0 .243-.03l1.282-.32a6.989 6.989 0 0 0 .878 1.534l-1.109 1.109a1 1 0 1 0 1.414 1.414l1.108-1.107a6.973 6.973 0 0 0 1.535.878l-.321 1.281a1 1 0 0 0 .728 1.213.968.968 0 0 0 .242.028 1 1 0 0 0 .969-.757l.319-1.279a6.964 6.964 0 0 0 .712.036 3.018 3.018 0 0 0 .469-.047l.611 1.438a1 1 0 0 0 .92.609.981.981 0 0 0 .391-.08 1 1 0 0 0 .529-1.311l-.689-1.622a2.983 2.983 0 0 0 .585-.987h1.184a1 1 0 0 0 0-2h-1.184a2.994 2.994 0 0 0 -.452-.825l.436-.575a1 1 0 0 0 -1.6-1.2l-.521.689a3.011 3.011 0 0 0 -.679-.089 1 1 0 0 1 -1-1 2.953 2.953 0 0 0 -.116-.78l.614-.353a1 1 0 0 0 -1-1.734l-.758.436a2.984 2.984 0 0 0 -.74-.385v-1.184a1 1 0 0 0 -2 0v1.184a3 3 0 0 0 -.744.385l-.758-.436a1 1 0 1 0 -1 1.734l.614.353a2.953 2.953 0 0 0 -.112.78 6.945 6.945 0 0 0 .036.71l-1.278.32a1 1 0 0 0 -.728 1.213zm8.97.757a1 1 0 0 1 0 2 5.006 5.006 0 0 1 -5-5 1 1 0 0 1 2 0 3 3 0 0 0 3 3z"/><path d="m15.205 43.383a1 1 0 0 0 1.265-.632 2.985 2.985 0 0 0 -1.17-3.422.979.979 0 0 1 -.24-1.4 1 1 0 1 0 -1.6-1.2 2.98 2.98 0 0 0 .731 4.267.982.982 0 0 1 .386 1.125 1 1 0 0 0 .628 1.262z"/><path d="m13.242 23.03a1 1 0 1 0 -.484 1.94l1.278.32a6.93 6.93 0 0 0 -.036.71 3.03 3.03 0 0 0 .047.469l-1.438.611a1 1 0 0 0 .391 1.92.981.981 0 0 0 .391-.08l1.622-.689a3.01 3.01 0 0 0 .987.585v1.184a1 1 0 0 0 2 0v-1.184a3.018 3.018 0 0 0 .825-.451l.571.432a1 1 0 1 0 1.204-1.597l-.689-.522a3 3 0 0 0 .089-.678 1 1 0 0 1 1-1 2.953 2.953 0 0 0 .78-.116l.353.614a1 1 0 0 0 .867.502.986.986 0 0 0 .5-.133 1 1 0 0 0 .369-1.365l-.436-.758a2.984 2.984 0 0 0 .383-.744h1.184a1 1 0 0 0 0-2h-1.184a2.984 2.984 0 0 0 -.385-.744l.436-.757a1 1 0 0 0 -1.734-1l-.353.615a2.966 2.966 0 0 0 -.78-.114 6.964 6.964 0 0 0 -.711.036l-.319-1.279a1 1 0 0 0 -1.94.486l.321 1.281a6.973 6.973 0 0 0 -1.535.878l-1.109-1.109a1 1 0 0 0 -1.414 1.414l1.107 1.109a6.989 6.989 0 0 0 -.878 1.534zm8.758-1.03a1 1 0 0 1 -1 1 3 3 0 0 0 -3 3 1 1 0 0 1 -2 0 5.006 5.006 0 0 1 5-5 1 1 0 0 1 1 1z"/><path d="m24.466 36.764.032-.493a1 1 0 0 0 -.933-1.063.988.988 0 0 0 -1.063.933l-.032.494a2.949 2.949 0 0 0 .8 2.217c-.147.135-.288.275-.423.422a2.983 2.983 0 0 0 -2.216-.8l-.493.032a1 1 0 0 0 -.934 1.062.987.987 0 0 0 1.063.934l.493-.032a.952.952 0 0 1 .923.531 6.947 6.947 0 0 0 -.53 1.537 2.956 2.956 0 0 0 -2.864.758 1 1 0 0 0 1.414 1.416.956.956 0 0 1 1.11-.181l.215.107a6.982 6.982 0 0 0 .31 1.517 2.953 2.953 0 0 0 -2.1 2.09 1 1 0 0 0 .707 1.225 1.015 1.015 0 0 0 .26.034 1 1 0 0 0 .965-.741.961.961 0 0 1 .871-.712l.245-.014a7.066 7.066 0 0 0 .986 1.115 2.95 2.95 0 0 0 -.8 2.218l.032.493a1 1 0 0 0 1 .935h.066a1 1 0 0 0 .933-1.063l-.032-.492a.958.958 0 0 1 .529-.929 6.94 6.94 0 0 0 2.447.658.961.961 0 0 1 0 1.062l-.274.411a1 1 0 0 0 1.664 1.11l.274-.412a2.951 2.951 0 0 0 .414-2.316 6.905 6.905 0 0 0 1.475-.512.958.958 0 0 1 .53.921l-.032.493a1 1 0 0 0 .933 1.063h.066a1 1 0 0 0 1-.935l.032-.494a2.948 2.948 0 0 0 -.8-2.212q.221-.2.421-.423a2.947 2.947 0 0 0 2.02.806c.064 0 .129 0 .194-.006l.493-.032a1 1 0 0 0 .934-1.062.986.986 0 0 0 -1.063-.934l-.493.032a.951.951 0 0 1 -.919-.525 6.972 6.972 0 0 0 .662-2.46.962.962 0 0 1 1.055.008l.411.275a1 1 0 1 0 1.11-1.664l-.411-.274a2.955 2.955 0 0 0 -3.288 0l-.411.274a1 1 0 0 0 -.444.834 5 5 0 1 1 -.669-2.5.97.97 0 0 0 .9.5 1 1 0 0 0 .864-.558l.217-.442a.956.956 0 0 1 .924-.534l.493.032a.989.989 0 0 0 1.063-.934 1 1 0 0 0 -.934-1.062l-.493-.032a2.987 2.987 0 0 0 -2.214.792 6.957 6.957 0 0 0 -1.118-.977l.014-.242a.962.962 0 0 1 .712-.872 1 1 0 1 0 -.518-1.931 2.957 2.957 0 0 0 -2.09 2.1 6.954 6.954 0 0 0 -1.595-.312.958.958 0 0 1 0-1.063l.274-.411a1 1 0 0 0 -1.664-1.11l-.274.412a2.947 2.947 0 0 0 -.414 2.314 6.931 6.931 0 0 0 -1.478.516.957.957 0 0 1 -.534-.922z"/><path d="m27 43a1 1 0 0 0 -2 0 4 4 0 0 0 4 4 1 1 0 0 0 0-2 2 2 0 0 1 -2-2z"/><circle cx="30" cy="43" r="1"/></g></g></g></svg>